<svg xmlns="http://www.w3.org/2000/svg" xmlns:xlink="http://www.w3.org/1999/xlink" width="190.09" height="190.08" viewBox="0 0 190.09 190.08">
  <defs>
    <clipPath id="clip-path">
      <rect id="Rectangle_1174" data-name="Rectangle 1174" width="190.09" height="190.08" fill="#8a0781"/>
    </clipPath>
  </defs>
  <g id="heart-nds" transform="translate(-1.44 -1.23)">
    <g id="Group_2452" data-name="Group 2452" transform="translate(1.44 1.23)">
      <g id="Group_2451" data-name="Group 2451" clip-path="url(#clip-path)">
        <path id="Path_11641" data-name="Path 11641" d="M94.315,1.47c28.162.045,52.464,9.982,70.667,28.6A94.807,94.807,0,1,1,2.339,95.91a93.968,93.968,0,0,1,28.51-67.337C49.285,10.679,71.513,1.834,94.315,1.47" transform="translate(-2.103 -1.407)" fill="#6b2975"/>
      </g>
    </g>
    <g id="Group_2453" data-name="Group 2453" transform="translate(37.987 28.977)">
      <path id="Path_11642" data-name="Path 11642" d="M347.054,114.523c.618-.649,1.218-1.322,1.883-1.932a20.6,20.6,0,0,1,7.567-4.6,16.091,16.091,0,0,1,12.173.935,13.531,13.531,0,0,1,4.231,3.336,22.758,22.758,0,0,1,5.352,9.458,20.964,20.964,0,0,1-.348,12.016,32.471,32.471,0,0,1-4.771,9.209,60.145,60.145,0,0,1-9.351,10.042,122.745,122.745,0,0,1-16.012,11.6,1.233,1.233,0,0,1-1.548,0,130.775,130.775,0,0,1-13.9-9.8,66.347,66.347,0,0,1-10.581-10.623,34.572,34.572,0,0,1-5.412-9.618,21.938,21.938,0,0,1-1.273-8.989,20.674,20.674,0,0,1,3.009-9.238,25.718,25.718,0,0,1,4.551-5.559,10.813,10.813,0,0,1,2.81-1.849,16.073,16.073,0,0,1,15.693.7,23.264,23.264,0,0,1,5.47,4.478c.113.123.225.244.34.364a.635.635,0,0,0,.12.071" transform="translate(-269.447 -107.196)" fill="#8cc63f"/>
      <path id="Path_11643" data-name="Path 11643" d="M309.016,435.87c-.291.262-.571.529-.864.78a13.12,13.12,0,0,1-6.2,2.917,15.521,15.521,0,0,1-8.405-.636,13.536,13.536,0,0,1-7.363-6.638A21.233,21.233,0,0,1,284,425.412a33.311,33.311,0,0,1-.089-9.227,22.045,22.045,0,0,1,3.1-9.22,13.967,13.967,0,0,1,9.227-6.544,13.689,13.689,0,0,1,9.285,1.026,13.922,13.922,0,0,1,2.315,1.516c.107.086.186.233.414.217V385.336c0-.935.1-1.042,1.045-1.212a16.089,16.089,0,0,1,2.43-.168,45.557,45.557,0,0,1,4.821.094,4.051,4.051,0,0,1,1.087.207.7.7,0,0,1,.56.78c.005.147,0,.3,0,.443v43.545a5.888,5.888,0,0,0,.076,1.05,1.373,1.373,0,0,0,1.21,1.26,4.317,4.317,0,0,0,.88.081c.508.018.71.173.791.67a7.489,7.489,0,0,1,.107,1.157,38.955,38.955,0,0,1-.084,4.1,5.522,5.522,0,0,1-.1.545.917.917,0,0,1-.673.733,13.626,13.626,0,0,1-2.692.631,13.168,13.168,0,0,1-3.755.055,6.034,6.034,0,0,1-4.818-3.3.844.844,0,0,0-.118-.134" transform="translate(-246.286 -311.47)" fill="#fff"/>
      <path id="Path_11644" data-name="Path 11644" d="M219.571,139.144v18.693c0,.757-.065.67.691.673,1.2,0,2.4,0,3.606,0h.278c.93.013,1.144.22,1.27,1.157a17.206,17.206,0,0,1,.094,2.49,35.188,35.188,0,0,1-.092,3.933c-.01.073-.013.147-.024.22-.123.867-.348,1.06-1.231,1.06H201.533c-.128,0-.259,0-.388-.008a.723.723,0,0,1-.7-.529,3.892,3.892,0,0,1-.2-1.2c-.063-1.812-.06-3.621,0-5.433a3.962,3.962,0,0,1,.175-1.089.732.732,0,0,1,.717-.581c.278-.008.552-.026.83-.026,1.239,0,2.477,0,3.716,0,.432,0,.432-.008.44-.416,0-.092,0-.186,0-.278q0-18.664,0-37.332c0-.77.1-.657-.683-.662-1.33-.008-2.663,0-3.993,0-.736,0-.979-.217-1.115-.948a8.63,8.63,0,0,1-.118-1.6c0-1.443,0-2.886.021-4.326a6.519,6.519,0,0,1,.141-1.21c.12-.584.369-.767.964-.791.147-.005.3,0,.445,0H224.24c.8.01,1.047.217,1.155,1.021a12.475,12.475,0,0,1,.118,1.767c-.008,1.33-.008,2.663-.021,3.993a5.694,5.694,0,0,1-.149,1.262c-.152.639-.39.825-1.05.825-1.369.005-2.736,0-4.106,0l-.388,0c-.165,0-.23.084-.228.241s0,.3,0,.445v18.646" transform="translate(-184.697 -109.958)" fill="#fff"/>
      <path id="Path_11645" data-name="Path 11645" d="M150.8,449.972c.278-.272.511-.5.749-.728a13.458,13.458,0,0,1,7.264-3.538,15.968,15.968,0,0,1,7.929.66,11.222,11.222,0,0,1,7.308,8.013,20.929,20.929,0,0,1,.728,5.478c.1,7.782.021,15.567.045,23.349,0,.762-.168.985-.919,1.139a7.865,7.865,0,0,1-1.265.152c-1.922.089-3.841.076-5.763,0a6.138,6.138,0,0,1-1.477-.217.682.682,0,0,1-.558-.723c.005-.165,0-.333,0-.5q0-10.346-.008-20.691a22.831,22.831,0,0,0-.28-3.752,4.546,4.546,0,0,0-3.771-3.983,10.826,10.826,0,0,0-5.844.325,4.416,4.416,0,0,0-3.284,4.307c-.081,1.385-.128,2.768-.131,4.156q-.008,9.792,0,19.581c0,.128,0,.259,0,.388-.016.534-.152.733-.66.888a7.6,7.6,0,0,1-1.974.243q-2.632.086-5.266-.024a8.508,8.508,0,0,1-1.21-.136c-.717-.134-.854-.319-.854-1.042q0-9.9,0-19.8c0-3.03-.063-6.062-.168-9.089-.079-2.289-.162-4.577-.361-6.86a.884.884,0,0,1,.8-1.121,8.716,8.716,0,0,1,2.035-.207,46.6,46.6,0,0,1,4.876.081c.11.01.223.016.33.034.859.136,1.157.393,1.333,1.244.162.767.267,1.537.406,2.378" transform="translate(-141.014 -356.905)" fill="#fff"/>
      <path id="Path_11646" data-name="Path 11646" d="M506.034,445.579a20.9,20.9,0,0,1,9.133,1.932,16.055,16.055,0,0,1,2.655,1.6.987.987,0,0,1,.437,1.335,6.651,6.651,0,0,1-.665,1.4c-.613,1.032-1.244,2.053-1.877,3.074a3.914,3.914,0,0,1-.7.859.881.881,0,0,1-1.2.141c-.621-.364-1.239-.733-1.888-1.05a12.43,12.43,0,0,0-5.507-1.3,9.251,9.251,0,0,0-3.794.657,3.741,3.741,0,0,0-1.3.927,2.378,2.378,0,0,0,.288,3.569,7.542,7.542,0,0,0,2.037,1.108c1.445.568,2.943.971,4.423,1.43a31.975,31.975,0,0,1,5.213,2,12.293,12.293,0,0,1,3.548,2.618,8.99,8.99,0,0,1,2.33,5.4,12.159,12.159,0,0,1-3.166,9.6,12.919,12.919,0,0,1-6.2,3.692,21.377,21.377,0,0,1-5.192.775,24.747,24.747,0,0,1-8.526-1.121,17.77,17.77,0,0,1-5.771-3,1.205,1.205,0,0,1-.508-1.634,3.152,3.152,0,0,1,.113-.312,31.26,31.26,0,0,1,2.482-4.444,3,3,0,0,1,.241-.3c.6-.681.937-.728,1.707-.236a18.52,18.52,0,0,0,6.942,2.789,11.528,11.528,0,0,0,5.535-.312,4.942,4.942,0,0,0,1.65-.888,2.419,2.419,0,0,0-.113-4.009A10.391,10.391,0,0,0,505.3,470.5c-1.72-.552-3.48-.99-5.19-1.576a18.391,18.391,0,0,1-5.279-2.632,9.609,9.609,0,0,1-3.839-6.968,12.116,12.116,0,0,1,.723-5.823,11.278,11.278,0,0,1,4.868-5.575,16.81,16.81,0,0,1,6.63-2.186,21.742,21.742,0,0,1,2.825-.157" transform="translate(-398.382 -356.974)" fill="#fff"/>
      <path id="Path_11647" data-name="Path 11647" d="M442.048,467.435V449.747c0-.99.113-1.152,1.1-1.3a14.4,14.4,0,0,1,1.987-.139c1.754-.01,3.511-.081,5.263.084a5.118,5.118,0,0,1,1.032.191.747.747,0,0,1,.592.77c0,.147,0,.3,0,.443v35.318c0,1.016-.173,1.2-1.181,1.356a14.448,14.448,0,0,1-2.045.131,43.777,43.777,0,0,1-5.59-.128c-.073-.008-.147-.01-.22-.024-.754-.136-.932-.338-.935-1.11q-.008-4.16,0-8.316Z" transform="translate(-363.223 -358.974)" fill="#fff"/>
      <path id="Path_11648" data-name="Path 11648" d="M442.5,396.761a6.376,6.376,0,1,1,6.431-6.258,6.38,6.38,0,0,1-6.431,6.258" transform="translate(-358.84 -311.526)" fill="#8cc63f"/>
      <path id="Path_11649" data-name="Path 11649" d="M337.137,489.287c0,1.959.01,3.917-.005,5.876a12.78,12.78,0,0,1-.152,2.095,3.566,3.566,0,0,1-1.825,2.634,8.673,8.673,0,0,1-3.3,1.06,9.088,9.088,0,0,1-4.258-.435,6.1,6.1,0,0,1-3.378-3.113,12.243,12.243,0,0,1-1.22-4,24.661,24.661,0,0,1,.209-7.992,12.07,12.07,0,0,1,1-3.1,6.616,6.616,0,0,1,6.439-3.962,8.217,8.217,0,0,1,6.329,3.163.84.84,0,0,1,.157.621v7.154Z" transform="translate(-275.178 -381.164)" fill="#6b2976"/>
    </g>
  </g>
</svg>
