<svg xmlns="http://www.w3.org/2000/svg" width="36.833" height="34" viewBox="0 0 36.833 34">
  <path id="like" d="M30.079,4.5a10.9,10.9,0,0,0-8.287,3.887A10.9,10.9,0,0,0,13.5,4.5,10.014,10.014,0,0,0,3.375,14.691c0,7.039,6.26,12.688,15.743,21.4L21.792,38.5l2.674-2.408c9.483-8.712,15.743-14.361,15.743-21.4A10.014,10.014,0,0,0,30.079,4.5ZM22.925,33.657,22.553,34l-.761.691L21.03,34l-.372-.345c-4.462-4.1-8.323-7.641-10.864-10.8-2.479-3.072-3.577-5.587-3.577-8.164a7.365,7.365,0,0,1,2.1-5.251A7.206,7.206,0,0,1,13.5,7.333a8.12,8.12,0,0,1,6.118,2.878l2.169,2.577,2.169-2.577a8.09,8.09,0,0,1,6.118-2.878,7.241,7.241,0,0,1,5.2,2.107,7.38,7.38,0,0,1,2.1,5.251c0,2.568-1.107,5.091-3.577,8.164A112.769,112.769,0,0,1,22.925,33.657Z" transform="translate(-3.375 -4.5)" fill="#66066f"/>
</svg>
